<?xml version="1.0" encoding="utf-8"?>
<svg width="145px" height="36px" viewBox="0 0 145 36" version="1.1" xmlns:xlink="http://www.w3.org/1999/xlink" xmlns="http://www.w3.org/2000/svg">
  <g id="LOOGERS">
    <g id="LOO" fill="#FC4850">
      <path d="M39.375 18.2983Q38.7891 21.7926 37.0739 24.2322Q35.3587 26.6719 32.9031 27.9396Q30.4474 29.2074 27.6136 29.2074Q24.6413 29.2074 22.4893 27.8544Q20.3374 26.5014 19.3839 23.9393Q18.4304 21.3771 19.027 17.755Q19.6023 14.25 21.3175 11.805Q23.0327 9.36009 25.5043 8.07635Q27.9759 6.79262 30.8203 6.79261Q33.782 6.79262 35.918 8.15625Q38.054 9.51989 39.0128 12.0927Q39.9716 14.6655 39.375 18.2983ZM60.5327 24.2322Q62.2479 21.7926 62.8338 18.2983Q63.4304 14.6655 62.4716 12.0927Q61.5128 9.51989 59.3768 8.15625Q57.2408 6.79262 54.2791 6.79261Q51.4347 6.79262 48.9631 8.07635Q46.4915 9.36009 44.7763 11.805Q43.0611 14.25 42.4858 17.755Q41.8892 21.3771 42.8427 23.9393Q43.7962 26.5014 45.9482 27.8544Q48.1001 29.2074 51.0724 29.2074Q53.9063 29.2074 56.3619 27.9396Q58.8175 26.6719 60.5327 24.2322ZM0.53267 28.9091L4.15483 7.09091L8.76776 7.09091L5.7848 25.1058L15.1385 25.1058L14.4993 28.9091L0.53267 28.9091ZM34.7834 17.755Q35.3374 14.3885 34.1974 12.6307Q33.0575 10.8729 30.6392 10.8729Q28.0078 10.8729 26.0955 12.8118Q24.1832 14.7507 23.608 18.2983Q23.022 21.6754 24.2045 23.4013Q25.3871 25.1271 27.7841 25.1271Q30.3942 25.1271 32.2958 23.2148Q34.1974 21.3026 34.7834 17.755ZM57.6563 12.6307Q58.7962 14.3885 58.2422 17.755Q57.6563 21.3026 55.7546 23.2148Q53.853 25.1271 51.2429 25.1271Q48.8459 25.1271 47.6634 23.4013Q46.4808 21.6754 47.0668 18.2983Q47.642 14.7507 49.5543 12.8118Q51.4666 10.8729 54.098 10.8729Q56.5163 10.8729 57.6563 12.6307Z" />
    </g>
    <g id="GERS" fill="#FFFFFF">
      <path d="M80.3001 11.7411Q81.2216 12.6094 81.392 14.1435L86.0796 14.1435Q86.1435 11.9808 85.1367 10.3242Q84.13 8.66762 82.2869 7.73011Q80.4439 6.79262 77.9723 6.79261Q75.0959 6.79262 72.5604 8.12429Q70.0249 9.45597 68.2564 11.9702Q66.4879 14.4844 65.902 18.0213Q65.3374 21.473 66.2163 23.9819Q67.0952 26.4908 69.1886 27.8491Q71.282 29.2074 74.3501 29.2074Q77.1094 29.2074 79.4265 28.0994Q81.7436 26.9915 83.299 24.9247Q84.8544 22.858 85.3125 19.9815L85.7813 17.233L76.6513 17.233L76.076 20.706L80.7528 20.706Q80.38 22.7301 78.7979 23.9286Q77.2159 25.1271 74.9041 25.1271Q72.3153 25.1271 71.1754 23.2628Q70.0355 21.3984 70.6001 17.9787Q70.973 15.7095 71.9957 14.1222Q73.0185 12.5348 74.4727 11.7038Q75.9268 10.8729 77.5994 10.8729Q79.3786 10.8729 80.3001 11.7411ZM139.155 11.3736Q139.986 12.098 139.933 13.4297L144.354 13.4297Q144.652 11.4482 143.885 9.95668Q143.118 8.4652 141.445 7.62891Q139.773 6.79262 137.344 6.79261Q134.957 6.79262 132.949 7.61825Q130.941 8.44389 129.625 9.92472Q128.31 11.4055 127.969 13.3977Q127.585 15.8054 128.944 17.2383Q130.302 18.6712 132.933 19.3423L135.213 19.9389Q136.928 20.3544 137.797 20.9616Q138.665 21.5689 138.473 22.6662Q138.281 23.8594 137.115 24.6051Q135.948 25.3509 134.169 25.3509Q132.369 25.3509 131.319 24.5252Q130.27 23.6996 130.44 22.0589L125.977 22.0589Q125.476 25.5852 127.553 27.4016Q129.631 29.218 133.583 29.218Q137.589 29.218 140.108 27.4442Q142.628 25.6705 143.129 22.6768Q143.438 20.8551 142.798 19.582Q142.159 18.3089 140.817 17.4993Q139.474 16.6896 137.653 16.2635L135.778 15.7947Q134.425 15.4751 133.482 14.8626Q132.539 14.25 132.773 13.0888Q132.955 12.0234 133.967 11.3363Q134.979 10.6491 136.673 10.6491Q138.324 10.6491 139.155 11.3736ZM90.9162 7.09091L87.294 28.9091L102.038 28.9091L102.678 25.1058L92.5462 25.1058L93.3984 19.8963L102.731 19.8963L103.37 16.093L94.0376 16.093L94.8899 10.8942L104.979 10.8942L105.618 7.09091L90.9162 7.09091ZM105.671 28.9091L109.293 7.09091L117.901 7.09091Q121.619 7.09091 123.345 9.02983Q125.071 10.9688 124.538 14.218Q124.176 16.4553 122.908 18.0426Q121.641 19.63 119.648 20.429L122.876 28.9091L117.784 28.9091L114.929 21.1747L111.573 21.1747L110.284 28.9091L105.671 28.9091ZM112.191 17.4673L115.323 17.4673Q119.254 17.4673 119.787 14.218Q120.025 12.7453 119.404 11.9189Q118.61 10.8622 116.41 10.8622L113.299 10.8622L112.191 17.4673Z" />
    </g>
  </g>
</svg>