<?xml version="1.0" encoding="utf-8"?>
<svg width="96px" height="96px" viewBox="0 0 96 96" version="1.1" xmlns:xlink="http://www.w3.org/1999/xlink" xmlns="http://www.w3.org/2000/svg">
  <defs>
    <path d="M0 0L96 0L96 96L0 96L0 0Z" id="path_1" />
    <clipPath id="mask_1">
      <use xlink:href="#path_1" />
    </clipPath>
  </defs>
  <g id="icons8_settings">
    <path d="M0 0L96 0L96 96L0 96L0 0Z" id="Background" fill="none" fill-rule="evenodd" stroke="none" />
    <g clip-path="url(#mask_1)">
      <path d="M72.0889 46.2C72.2889 44.8 72.4889 43.4 72.4889 41.8C72.4889 40.2 72.2889 38.8 72.0889 37.4L81.0889 31C81.8889 30.4 82.2889 29.2 81.6889 28.2L72.8889 13.4C72.2889 12.4 71.2889 12 70.2889 12.6L60.2889 17.2C57.8889 15.4 55.4889 14 52.6889 12.8L51.6889 1.8C51.4889 0.8 50.6889 0 49.6889 0L32.4889 0C31.4889 0 30.4889 0.8 30.4889 1.8L29.4889 12.8C26.6889 14 24.0889 15.4 21.8889 17.2L11.8889 12.6C10.8889 12.2 9.68889 12.6 9.28889 13.4L0.68889 28.2C0.0888901 29.2 0.48889 30.4 1.28889 31L10.2889 37.4C10.0889 38.8 9.88889 40.2 9.88889 41.8C9.88889 43.4 10.0889 44.8 10.2889 46.2L0.888889 52.6C0.0888886 53.2 -0.311111 54.4 0.288889 55.4L8.88889 70.2C9.48889 71.2 10.4889 71.6 11.4889 71L21.4889 66.4C23.8889 68.2 26.2889 69.6 29.0889 70.8L30.0889 81.8C30.2889 82.8 31.0889 83.6 32.0889 83.6L49.2889 83.6C50.2889 83.6 51.2889 82.8 51.2889 81.8L52.2889 70.8C55.0889 69.6 57.6889 68.2 59.8889 66.4L69.8889 71C70.8889 71.4 72.0889 71 72.4889 70.2L81.0889 55.4C81.6889 54.4 81.2889 53.2 80.4889 52.6L72.0889 46.2L72.0889 46.2ZM40.8889 61.8C29.8889 61.8 20.8889 52.8 20.8889 41.8C20.8889 30.8 29.8889 21.8 40.8889 21.8C51.8889 21.8 60.8889 30.8 60.8889 41.8C60.8889 52.8 51.8889 61.8 40.8889 61.8L40.8889 61.8Z" transform="translate(7.111084 8.200012)" id="Shape" fill="#607D8B" fill-rule="evenodd" stroke="none" />
      <path d="M24 0C10.8 0 0 10.8 0 24C0 37.2 10.8 48 24 48C37.2 48 48 37.2 48 24C48 10.8 37.2 0 24 0L24 0ZM24 34C18.4 34 14 29.6 14 24C14 18.4 18.4 14 24 14C29.6 14 34 18.4 34 24C34 29.6 29.6 34 24 34L24 34Z" transform="translate(24 26)" id="Shape" fill="#455A64" fill-rule="evenodd" stroke="none" />
    </g>
  </g>
</svg>